<svg width="25" height="24" viewBox="0 0 25 24" fill="none" xmlns="http://www.w3.org/2000/svg">
	<path
		d="M14.296 19.8344C16.9982 19.7042 19.2275 18.7814 20.8663 17.3051L21.2111 16.977C22.9825 15.2036 23.8545 12.8527 23.8546 10.5277L23.8448 10.0912C23.7494 8.05614 22.9849 6.03018 21.5333 4.41739L21.2111 4.07754C19.546 2.41092 17.1929 1.36069 14.296 1.2211L14.296 5.32462C16.0478 5.44588 17.2911 6.04168 18.131 6.8002L18.3136 6.97305C19.2669 7.9275 19.7579 9.21451 19.7579 10.5277L19.7521 10.7729C19.6985 11.9182 19.2702 13.0283 18.4864 13.8988L18.3136 14.0815C17.4751 14.9208 16.1791 15.6005 14.296 15.7309L14.296 19.8344Z"
		stroke="#C5C5C5" stroke-width="1.33147" stroke-linejoin="bevel" />
	<mask id="path-2-inside-1_9368_3783" fill="white">
		<path d="M8.38843 11.5189L4.75269 16.474L1.57104 9.86459L6.45972 7.51108L8.38843 11.5189Z" />
	</mask>
	<path
		d="M8.38843 11.5189L9.46192 12.3066L9.9349 11.6619L9.5882 10.9415L8.38843 11.5189ZM4.75269 16.474L3.55298 17.0515L4.51462 19.0491L5.82618 17.2616L4.75269 16.474ZM1.57104 9.86459L0.99349 8.66491L-0.206155 9.24245L0.371343 10.4421L1.57104 9.86459ZM6.45972 7.51108L7.65949 6.9337L7.08203 5.73375L5.88216 6.31139L6.45972 7.51108ZM8.38843 11.5189L7.31493 10.7312L3.67919 15.6863L4.75269 16.474L5.82618 17.2616L9.46192 12.3066L8.38843 11.5189ZM4.75269 16.474L5.95239 15.8965L2.77075 9.28708L1.57104 9.86459L0.371343 10.4421L3.55298 17.0515L4.75269 16.474ZM1.57104 9.86459L2.1486 11.0643L7.03727 8.71076L6.45972 7.51108L5.88216 6.31139L0.99349 8.66491L1.57104 9.86459ZM6.45972 7.51108L5.25995 8.08845L7.18866 12.0963L8.38843 11.5189L9.5882 10.9415L7.65949 6.9337L6.45972 7.51108Z"
		fill="#C5C5C5" mask="url(#path-2-inside-1_9368_3783)" />
	<path d="M1.4469 19.9209L4.77313 22.3622L14.7969 8.70206L11.4699 6.26124L1.4469 19.9209Z"
		stroke="#C5C5C5" stroke-width="1.33147" />
</svg>