<svg width="24" height="24" viewBox="0 0 24 24" fill="none" xmlns="http://www.w3.org/2000/svg">
	<g clip-path="url(#clip0_9369_3783)">
		<path
			d="M13.5504 19.3002C16.5051 19.3002 18.9364 18.2997 20.6347 16.5997C22.3103 14.9223 23.1315 12.7017 23.1315 10.5116C23.1315 8.3216 22.3103 6.10096 20.6347 4.42358C18.9364 2.72355 16.5051 1.72312 13.5504 1.72312L13.5504 6.49861C15.3913 6.49861 16.5566 7.09833 17.2562 7.79859C17.9783 8.5215 18.356 9.50131 18.356 10.5116C18.356 11.522 17.9783 12.5018 17.2562 13.2247C16.5566 13.9249 15.3913 14.5246 13.5504 14.5246L13.5504 19.3002Z"
			stroke="#C5C5C5" stroke-width="1.4" stroke-linejoin="bevel" />
		<path
			d="M0.762463 19.2853L4.56385 22.0745L13.9032 9.34621L10.1018 6.55697L0.762463 19.2853Z"
			stroke="#C5C5C5" stroke-width="1.4" stroke-linejoin="bevel" />
		<path
			d="M6.22522 8.17798L6.95667 9.69849L6.01819 10.9778L5.26721 9.41626L2.53381 10.7327L3.98596 13.7483L3.04749 15.0256L0.96936 10.7073L1.29651 9.77271L5.29163 7.85083L6.22522 8.17798Z"
			fill="#C5C5C5" />
	</g>
	<defs>
		<clipPath id="clip0_9369_3783">
			<rect width="24" height="24" fill="white" />
		</clipPath>
	</defs>
</svg>